# xmcd
#
# Track frame offsets: 
#        150
#        15562
#        34607
#        49851
#        64546
#        78329
#        94699
#        106704
#        120949
#        136361
#        150286
#
# Disc length: 2170 seconds
#
# Revision: 0
# Processed by: cddbd v1.5.2PL0 Copyright (c) Steve Scherf et al.
# Submitted via: ExactAudioCopy v1.0b1
#
DISCID=7208780b
DTITLE=Merle Haggard, Willie Nelson and Ray Price - Last Of The Breed (C
DTITLE=D2)
DYEAR=2007
DGENRE=Country
TTITLE0=Goin' Away Party
TTITLE1=If I Ever Get Lucky
TTITLE2=Sweet Memories
TTITLE3=Pick Me Up On Your Way Down
TTITLE4=I Love You Because
TTITLE5=Sweet Jesus
TTITLE6=Still Water Runs The Deepest
TTITLE7=I Love You So Much It Hurts
TTITLE8=That Silver Haired Daddy Of Mine
TTITLE9=I'll Keep On Loving You
TTITLE10=Night Watch
EXTD=
EXTT0=
EXTT1=
EXTT2=
EXTT3=
EXTT4=
EXTT5=
EXTT6=
EXTT7=
EXTT8=
EXTT9=
EXTT10=
PLAYORDER=
